<?xml version="1.0" standalone="no"?>
<!DOCTYPE svg PUBLIC "-//W3C//DTD SVG 20010904//EN"
 "http://www.w3.org/TR/2001/REC-SVG-20010904/DTD/svg10.dtd">
<svg version="1.0" xmlns="http://www.w3.org/2000/svg"
 width="400.000000pt" height="400.000000pt" viewBox="0 0 400.000000 400.000000"
 preserveAspectRatio="xMidYMid meet">
<metadata>
Created by potrace 1.11, written by Peter Selinger 2001-2013
</metadata>
<g transform="translate(0.000000,400.000000) scale(0.100000,-0.100000)"
fill="#000000" stroke="none">
<path d="M0 3967 c0 -29 28 -60 278 -310 l277 -277 306 0 306 0 11 -25 c6 -13
26 -32 44 -41 120 -62 247 61 178 174 -49 80 -164 81 -220 2 l-21 -30 -277 0
-277 0 -270 270 c-243 243 -273 270 -302 270 -31 0 -33 -2 -33 -33z m1328
-535 c7 -48 -40 -69 -72 -33 -14 16 -15 23 -6 41 16 31 74 25 78 -8z"/>
<path d="M1535 3020 l-980 -980 -277 0 -278 0 0 -40 0 -40 298 0 297 0 1020
1020 1020 1020 -60 0 -60 0 -980 -980z"/>
<path d="M2653 3535 c-38 -16 -73 -68 -73 -108 0 -71 59 -130 129 -130 47 0
99 27 113 58 l11 25 584 0 583 0 0 40 0 40 -579 0 -580 0 -21 30 c-40 57 -102
73 -167 45z m97 -96 c21 -38 -37 -78 -68 -47 -13 13 -16 50 -5 61 15 16 63 6
73 -14z"/>
<path d="M3308 3056 c-122 -44 -204 -131 -237 -254 l-12 -42 -537 0 -537 0
-993 -993 -992 -992 0 -60 0 -60 1008 1008 1007 1007 521 0 521 0 16 -57 c80
-288 464 -357 642 -116 71 98 88 231 44 348 -31 82 -121 173 -202 203 -67 25
-189 29 -249 8z m239 -102 c93 -45 147 -133 147 -244 0 -288 -387 -375 -520
-117 -10 17 -19 64 -22 102 -6 90 21 156 84 215 90 83 198 98 311 44z"/>
<path d="M475 3047 c-120 -40 -203 -128 -239 -251 l-12 -41 -112 -3 -112 -3 0
-39 0 -40 115 0 c94 0 115 -3 115 -15 0 -8 9 -39 21 -70 27 -73 103 -155 176
-191 50 -24 70 -28 148 -28 77 -1 98 3 146 25 79 37 133 90 171 167 29 59 33
76 33 152 0 71 -4 94 -27 142 -60 129 -164 199 -303 205 -48 2 -96 -2 -120
-10z"/>
<path d="M1867 2336 c-106 -45 -167 -108 -208 -215 -16 -44 -20 -73 -17 -136
6 -142 79 -254 207 -314 49 -23 69 -26 156 -26 90 0 105 3 153 28 29 15 70 44
92 63 42 38 95 134 106 190 l6 34 509 0 509 0 0 -980 0 -980 40 0 40 0 0 1020
0 1020 -549 0 -549 0 -6 34 c-11 56 -64 152 -106 190 -72 65 -134 89 -235 93
-78 3 -98 0 -148 -21z"/>
<path d="M1255 1413 c-118 -30 -127 -198 -13 -241 56 -21 105 -8 149 39 l36
39 573 0 573 0 36 -39 c63 -68 159 -64 208 8 72 106 -35 233 -156 185 -24 -9
-48 -29 -58 -45 l-17 -29 -586 0 -587 0 -14 27 c-22 41 -92 69 -144 56z m63
-95 c17 -17 15 -55 -4 -62 -29 -11 -53 -6 -64 13 -13 25 -13 27 6 45 18 19 45
21 62 4z m1426 -4 c19 -18 19 -20 6 -45 -18 -33 -80 -22 -80 15 0 43 44 61 74
30z"/>
<path d="M550 702 c-97 -17 -134 -149 -61 -214 61 -54 134 -49 192 13 l36 39
264 -2 264 -3 3 -267 2 -268 40 0 40 0 0 310 0 310 -314 0 -314 0 -16 25 c-29
44 -83 67 -136 57z m60 -96 c6 -8 10 -25 8 -38 -4 -30 -56 -38 -75 -12 -17 23
-16 29 3 48 19 20 48 20 64 2z"/>
<path d="M1960 310 l0 -310 40 0 40 0 2 268 3 267 310 0 310 0 3 -267 2 -268
40 0 40 0 0 310 0 310 -395 0 -395 0 0 -310z"/>
</g>
</svg>
